<mxfile host="app.diagrams.net" agent="Mozilla/5.0 (Macintosh; Intel Mac OS X 10_15_7) AppleWebKit/537.36 (KHTML, like Gecko) Chrome/141.0.0.0 Safari/537.36" version="28.2.5">
  <diagram name="PÃ¡gina-1" id="CSnGqfWIAgq9iiMW2kBl">
    <mxGraphModel dx="1102" dy="688" grid="1" gridSize="10" guides="1" tooltips="1" connect="1" arrows="1" fold="1" page="1" pageScale="1" pageWidth="850" pageHeight="1100" math="0" shadow="0">
      <root>
        <mxCell id="0" />
        <mxCell id="1" parent="0" />
        <mxCell id="tCmU2cpwM6dato110C1D-16" style="edgeStyle=orthogonalEdgeStyle;rounded=0;orthogonalLoop=1;jettySize=auto;html=1;entryX=0;entryY=0.5;entryDx=0;entryDy=0;" edge="1" parent="1" source="tCmU2cpwM6dato110C1D-1" target="tCmU2cpwM6dato110C1D-15">
          <mxGeometry relative="1" as="geometry" />
        </mxCell>
        <mxCell id="tCmU2cpwM6dato110C1D-1" value="Alumnos" style="ellipse;whiteSpace=wrap;html=1;" vertex="1" parent="1">
          <mxGeometry x="260" y="380" width="230" height="170" as="geometry" />
        </mxCell>
        <mxCell id="tCmU2cpwM6dato110C1D-12" style="edgeStyle=orthogonalEdgeStyle;rounded=0;orthogonalLoop=1;jettySize=auto;html=1;entryX=0;entryY=0.5;entryDx=0;entryDy=0;" edge="1" parent="1" source="tCmU2cpwM6dato110C1D-3" target="tCmU2cpwM6dato110C1D-1">
          <mxGeometry relative="1" as="geometry" />
        </mxCell>
        <mxCell id="tCmU2cpwM6dato110C1D-3" value="Talleres" style="whiteSpace=wrap;html=1;aspect=fixed;" vertex="1" parent="1">
          <mxGeometry x="70" y="650" width="80" height="80" as="geometry" />
        </mxCell>
        <mxCell id="tCmU2cpwM6dato110C1D-4" value="Salones" style="whiteSpace=wrap;html=1;aspect=fixed;" vertex="1" parent="1">
          <mxGeometry x="310" y="690" width="80" height="80" as="geometry" />
        </mxCell>
        <mxCell id="tCmU2cpwM6dato110C1D-5" value="Dormitorios" style="whiteSpace=wrap;html=1;aspect=fixed;" vertex="1" parent="1">
          <mxGeometry x="530" y="650" width="80" height="80" as="geometry" />
        </mxCell>
        <mxCell id="tCmU2cpwM6dato110C1D-11" style="edgeStyle=orthogonalEdgeStyle;rounded=0;orthogonalLoop=1;jettySize=auto;html=1;exitX=0.25;exitY=0;exitDx=0;exitDy=0;entryX=0.375;entryY=0.125;entryDx=0;entryDy=0;entryPerimeter=0;" edge="1" parent="1" source="tCmU2cpwM6dato110C1D-3" target="tCmU2cpwM6dato110C1D-3">
          <mxGeometry relative="1" as="geometry" />
        </mxCell>
        <mxCell id="tCmU2cpwM6dato110C1D-13" style="edgeStyle=orthogonalEdgeStyle;rounded=0;orthogonalLoop=1;jettySize=auto;html=1;entryX=0.348;entryY=1;entryDx=0;entryDy=0;entryPerimeter=0;" edge="1" parent="1" source="tCmU2cpwM6dato110C1D-4" target="tCmU2cpwM6dato110C1D-1">
          <mxGeometry relative="1" as="geometry" />
        </mxCell>
        <mxCell id="tCmU2cpwM6dato110C1D-14" style="edgeStyle=orthogonalEdgeStyle;rounded=0;orthogonalLoop=1;jettySize=auto;html=1;entryX=1;entryY=0.541;entryDx=0;entryDy=0;entryPerimeter=0;" edge="1" parent="1" source="tCmU2cpwM6dato110C1D-5" target="tCmU2cpwM6dato110C1D-1">
          <mxGeometry relative="1" as="geometry" />
        </mxCell>
        <mxCell id="tCmU2cpwM6dato110C1D-20" style="edgeStyle=orthogonalEdgeStyle;rounded=0;orthogonalLoop=1;jettySize=auto;html=1;entryX=0;entryY=0.5;entryDx=0;entryDy=0;" edge="1" parent="1" source="tCmU2cpwM6dato110C1D-15" target="tCmU2cpwM6dato110C1D-17">
          <mxGeometry relative="1" as="geometry" />
        </mxCell>
        <mxCell id="tCmU2cpwM6dato110C1D-21" style="edgeStyle=orthogonalEdgeStyle;rounded=0;orthogonalLoop=1;jettySize=auto;html=1;" edge="1" parent="1" source="tCmU2cpwM6dato110C1D-15" target="tCmU2cpwM6dato110C1D-18">
          <mxGeometry relative="1" as="geometry" />
        </mxCell>
        <mxCell id="tCmU2cpwM6dato110C1D-22" style="edgeStyle=orthogonalEdgeStyle;rounded=0;orthogonalLoop=1;jettySize=auto;html=1;" edge="1" parent="1" source="tCmU2cpwM6dato110C1D-15" target="tCmU2cpwM6dato110C1D-19">
          <mxGeometry relative="1" as="geometry" />
        </mxCell>
        <mxCell id="tCmU2cpwM6dato110C1D-15" value="meta informacion" style="whiteSpace=wrap;html=1;aspect=fixed;" vertex="1" parent="1">
          <mxGeometry x="450" y="150" width="70" height="70" as="geometry" />
        </mxCell>
        <mxCell id="tCmU2cpwM6dato110C1D-17" value="Autora" style="rounded=1;whiteSpace=wrap;html=1;" vertex="1" parent="1">
          <mxGeometry x="590" y="70" width="120" height="60" as="geometry" />
        </mxCell>
        <mxCell id="tCmU2cpwM6dato110C1D-18" value="Referencias" style="rounded=1;whiteSpace=wrap;html=1;" vertex="1" parent="1">
          <mxGeometry x="590" y="160" width="120" height="60" as="geometry" />
        </mxCell>
        <mxCell id="tCmU2cpwM6dato110C1D-19" value="Historia, personajes" style="rounded=1;whiteSpace=wrap;html=1;" vertex="1" parent="1">
          <mxGeometry x="510" y="260" width="120" height="60" as="geometry" />
        </mxCell>
      </root>
    </mxGraphModel>
  </diagram>
</mxfile>
